<svg width="22" height="30" viewBox="0 0 22 30" fill="none" xmlns="http://www.w3.org/2000/svg">
    <path d="M20 30C19.803 30 19.608 29.9612 19.426 29.8858C19.244 29.8104 19.0787 29.6999 18.9395 29.5605L11 22.911L2.978 29.6355C2.75966 29.82 2.49331 29.9386 2.21008 29.9773C1.92685 30.0161 1.63844 29.9734 1.37856 29.8543C1.11868 29.7353 0.898057 29.5447 0.742482 29.3048C0.586906 29.065 0.502803 28.7859 0.5 28.5V1.5C0.5 1.10218 0.658036 0.720644 0.93934 0.43934C1.22064 0.158035 1.60218 0 2 0H20C20.3978 0 20.7794 0.158035 21.0607 0.43934C21.342 0.720644 21.5 1.10218 21.5 1.5V28.5C21.5 28.8978 21.342 29.2794 21.0607 29.5607C20.7794 29.842 20.3978 30 20 30Z" fill="url(#paint0_linear_53_1104)"/>
    <defs>
    <linearGradient id="paint0_linear_53_1104" x1="-0.0250076" y1="18.2609" x2="23.3069" y2="21.4624" gradientUnits="userSpaceOnUse">
    <stop stop-color="#FFE607"/>
    <stop offset="0.879282" stop-color="#FF7E07"/>
    </linearGradient>
    </defs>
    </svg>
    