<svg width="35" height="35" viewBox="0 0 20 20" fill="none" xmlns="http://www.w3.org/2000/svg">
<path d="M2.7069 1.98026L17.7578 9.17854C18.2027 9.39129 18.3908 9.92439 18.1781 10.3692C18.0901 10.5532 17.9418 10.7015 17.7578 10.7895L2.7069 17.9878C2.26205 18.2005 1.72895 18.0124 1.51619 17.5675C1.42374 17.3742 1.40389 17.1541 1.46027 16.9474L2.96567 11.4274C3.00338 11.2891 3.12012 11.1868 3.26216 11.1675L10.5554 10.1768C10.6183 10.1678 10.6704 10.1265 10.6944 10.0701L10.707 10.0253C10.7189 9.9416 10.6708 9.86319 10.5953 9.83371L10.5554 9.82325L3.27069 8.8326C3.12867 8.81328 3.01196 8.71094 2.97425 8.57267L1.46027 3.02067C1.33053 2.54493 1.61101 2.05409 2.08674 1.92434C2.29347 1.86796 2.51359 1.88781 2.7069 1.98026Z" fill="#8b5cf6"/>
</svg>
