<svg width="24" height="30" viewBox="0 0 24 30" fill="none" xmlns="http://www.w3.org/2000/svg">
<path d="M16.4211 20.9493C16.3505 20.9386 16.2784 20.944 16.2103 20.9653C16.1422 20.9866 16.0798 21.023 16.0279 21.072C14.7764 22.2527 13.4292 23.3276 12 24.2855C10.5708 23.3276 9.22356 22.2527 7.97212 21.072C7.92003 21.0233 7.85762 20.987 7.78955 20.9657C7.72147 20.9445 7.64948 20.9389 7.57894 20.9493C3.36656 21.5953 0.75 23.0878 0.75 24.8438C0.75 27.5839 6.54619 29.0625 12 29.0625C17.4538 29.0625 23.25 27.5839 23.25 24.8438C23.25 23.0878 20.6334 21.5953 16.4211 20.9493Z" fill="#6B76FF"/>
<path d="M12 0.9375C9.2659 0.940577 6.64466 2.02806 4.71136 3.96136C2.77806 5.89466 1.69058 8.5159 1.6875 11.25C1.6875 15.5264 4.75495 19.3222 7.32759 21.7531C8.692 23.0503 10.1735 24.2184 11.7533 25.2425C11.8274 25.2883 11.9128 25.3125 12 25.3125C12.0872 25.3125 12.1726 25.2883 12.2468 25.2425C13.8263 24.2185 15.3076 23.0505 16.6718 21.7534C19.245 19.3222 22.3125 15.5264 22.3125 11.25C22.3094 8.5159 21.2219 5.89466 19.2886 3.96136C17.3553 2.02806 14.7341 0.940577 12 0.9375Z" fill="#A5AEFF"/>
<path d="M12 15.9375C14.5888 15.9375 16.6875 13.8388 16.6875 11.25C16.6875 8.66117 14.5888 6.5625 12 6.5625C9.41117 6.5625 7.3125 8.66117 7.3125 11.25C7.3125 13.8388 9.41117 15.9375 12 15.9375Z" fill="#F4F4B3"/>
</svg>
