<svg width="30" height="30" viewBox="0 0 30 30" fill="none" xmlns="http://www.w3.org/2000/svg">
<g clip-path="url(#clip0_179_209)">
<path opacity="0.3" d="M15 11.0918L28.5352 6.22852V8.05664L15 13.0723V11.0918Z" fill="#9FAFFF"/>
<path d="M27.8906 22.582C27.8906 23.5137 27.4805 24.3105 26.8887 24.6797C26.666 24.8203 26.4199 24.8965 26.1563 24.8965C25.8926 24.8965 25.6465 24.8203 25.4238 24.6797C24.832 24.3105 24.4219 23.5137 24.4219 22.582C24.4219 21.3047 25.1953 20.2676 26.1563 20.2676C27.1172 20.2676 27.8906 21.3047 27.8906 22.582Z" fill="#5C77FF"/>
<path d="M29.1094 5.49609L15.1758 0.955078C15.0645 0.908203 14.9355 0.908203 14.8242 0.955078L0.890625 5.49609C0.708984 5.55469 0.585938 5.72461 0.585938 5.91211V8.36133C0.585938 8.54297 0.703125 8.70703 0.873047 8.77148L6.69141 10.9277V16.8867C6.69141 16.9922 6.72656 17.0918 6.79688 17.1738C6.82617 17.209 7.57031 18.0762 8.95313 18.9492C10.2246 19.752 12.3047 20.7012 14.9941 20.707H15.0117C17.6953 20.7012 19.7754 19.752 21.0469 18.9492C22.4297 18.082 23.1738 17.2148 23.2031 17.1738C23.2734 17.0918 23.3086 16.9922 23.3086 16.8867V10.9277L25.7168 10.0371V20.2617C25.7168 20.502 25.916 20.7012 26.1562 20.7012C26.3965 20.7012 26.5957 20.502 26.5957 20.2617V9.70898L29.127 8.77148C29.2969 8.70703 29.4141 8.54297 29.4141 8.36133V5.91211C29.4141 5.72461 29.291 5.55469 29.1094 5.49609ZM22.4297 16.7168C22.1895 16.9687 21.5449 17.5957 20.5547 18.2168C19.3887 18.9492 17.4785 19.8164 15.0117 19.8223H14.9941C12.5273 19.8223 10.6172 18.9492 9.44531 18.2168C8.44922 17.5957 7.80469 16.9687 7.57031 16.7168V11.2559L8.48438 11.5957L14.7773 13.9277C14.8418 13.9629 14.918 13.9863 14.9941 13.9863C15 13.9863 15 13.9863 15.0059 13.9863C15.0117 13.9863 15.0176 13.9863 15.0176 13.9863C15.0879 13.9863 15.1641 13.9687 15.2344 13.9277L22.4355 11.2559V16.7168H22.4297ZM28.5352 8.05664L26.1504 8.94141L15.0645 5.07422C14.8359 4.99219 14.584 5.11523 14.502 5.34375C14.4199 5.57227 14.543 5.82422 14.7715 5.90625L24.8496 9.42187L22.7051 10.2129L15 13.0723L7.2832 10.2129L1.46484 8.05664V6.23437L15 1.82813L28.5352 6.23437V8.05664Z" fill="#284172"/>
<path d="M27.8906 29.0801H24.4277L25.4297 24.6797C25.6523 24.8203 25.8984 24.8965 26.1621 24.8965C26.4258 24.8965 26.6719 24.8203 26.8945 24.6797L27.8906 29.0801Z" fill="#A4B8FF"/>
<path opacity="0.3" d="M22.4297 14.7012L16.5762 17.4141C15.5742 17.877 14.4141 17.8945 13.4004 17.4492L7.56445 14.9004V11.2617L14.9824 13.9863L22.4238 11.2617V14.7012H22.4297Z" fill="#485EFF"/>
</g>
<defs>
<clipPath id="clip0_179_209">
<rect width="30" height="30" fill="white"/>
</clipPath>
</defs>
</svg>
