<svg width="30" height="30" viewBox="0 0 30 30" fill="none" xmlns="http://www.w3.org/2000/svg">
<g clip-path="url(#clip0_184_240)">
<path d="M5.62498 26.7415H24.3748C25.6732 26.7415 26.7185 25.6962 26.7185 24.3977V10.363C26.7185 3.70591 3.28125 3.15935 3.28125 10.363V24.3977C3.28125 25.6962 4.32655 26.7415 5.62498 26.7415Z" fill="#A8D0FF"/>
<path d="M13.8215 1.25853L2.10884 8.0201C0.988427 8.66728 0.604435 10.1 1.251 11.2207C1.89808 12.3424 2.39469 12.7268 3.51599 12.079L13.9599 6.59098C14.7032 6.16186 15.4108 6.22739 16.0682 6.60693L26.4845 12.079C27.6054 12.7255 28.1007 12.3413 28.7477 11.2207C29.3945 10.1003 29.0111 8.66775 27.8912 8.0201L16.1712 1.25396C16.0259 1.17725 15.5861 0.946375 14.9998 0.940392C14.47 0.934985 13.9499 1.19135 13.8215 1.25853Z" fill="#0066FF"/>
<path d="M9.92217 13.1395C7.71865 13.1395 5.94458 14.9136 5.94458 17.1171V26.7214H13.8998V17.1171C13.8998 14.9136 12.1257 13.1395 9.92217 13.1395Z" fill="white"/>
<path d="M2.10936 24.8435H27.8904C28.5396 24.8435 29.0622 25.3662 29.0622 26.0154V27.8904C29.0622 28.5396 28.5396 29.0622 27.8904 29.0622H2.10936C1.46015 29.0622 0.9375 28.5396 0.9375 27.8904V26.0154C0.9375 25.3662 1.46015 24.8435 2.10936 24.8435ZM17.2557 14.3846H23.0857C23.7349 14.3846 24.2576 14.9073 24.2576 15.5565V20.3026C24.2576 20.9518 23.7349 21.4744 23.0857 21.4744H17.2557C16.6065 21.4744 16.0838 20.9518 16.0838 20.3026V15.5565C16.0838 14.9073 16.6065 14.3846 17.2557 14.3846Z" fill="#00A1FF"/>
</g>
<defs>
<clipPath id="clip0_184_240">
<rect width="30" height="30" fill="white"/>
</clipPath>
</defs>
</svg>
