<svg width="30" height="30" viewBox="0 0 20 20" fill="none" xmlns="http://www.w3.org/2000/svg">
<path d="M16.7175 3.28249C14.9359 1.50089 12.5196 0.5 10 0.5H9.5V0.513154C7.16259 0.636255 4.94587 1.6191 3.28249 3.28249C1.50089 5.06408 0.5 7.48044 0.5 10C0.5 12.5196 1.50089 14.9359 3.28249 16.7175C5.06408 18.4991 7.48044 19.5 10 19.5C12.5196 19.5 14.9359 18.4991 16.7175 16.7175C18.4991 14.9359 19.5 12.5196 19.5 10C19.5 7.48044 18.4991 5.06408 16.7175 3.28249Z" fill="url(#paint0_linear_82_416)" stroke="white"/>
<path d="M12.7821 5.5C10.3094 5.5 10 7.552 10 7.552C10 7.552 9.69177 5.5 7.21902 5.5C4.84077 5.5 4.14777 7.99975 4.43802 9.33625C5.20302 12.8688 10 15.3438 10 15.3438C10 15.3438 14.7981 12.8688 15.5631 9.33625C15.8523 7.99975 15.1581 5.5 12.7821 5.5Z" fill="white"/>
<defs>
<linearGradient id="paint0_linear_82_416" x1="10" y1="1" x2="10" y2="19" gradientUnits="userSpaceOnUse">
<stop stop-color="#FF6680"/>
<stop offset="1" stop-color="#E61739"/>
</linearGradient>
</defs>
</svg>
