<svg className="ml-[11px]" width="36" height="36" viewBox="0 0 36 36" fill="none" xmlns="http://www.w3.org/2000/svg">
                <path d="M2.25 7.875C2.25 6.01104 3.76104 4.5 5.625 4.5H30.375C32.239 4.5 33.75 6.01104 33.75 7.875V27.5625C33.75 29.7371 31.9871 31.5 29.8125 31.5H5.625C3.76104 31.5 2.25 29.989 2.25 28.125V7.875Z" fill="url(#paint0_linear_87_66)" />
                <path d="M20.8125 15.1875C22.3658 15.1875 23.625 13.9283 23.625 12.375C23.625 10.8217 22.3658 9.5625 20.8125 9.5625C19.2592 9.5625 18 10.8217 18 12.375C18 13.9283 19.2592 15.1875 20.8125 15.1875Z" fill="url(#paint1_linear_87_66)" />
                <path d="M33.75 25.0413L29.241 21.8817C28.2401 21.1803 26.9059 21.2095 25.936 21.954L13.5 31.5H30.375C32.239 31.5 33.75 29.9738 33.75 28.0912V25.0413Z" fill="url(#paint2_linear_87_66)" />
                <path d="M5.46429 31.5C3.68909 31.5 2.25 30.0775 2.25 28.3227L13.7074 19.6938C14.8643 18.8225 16.5024 18.9668 17.4852 20.0266L28.125 31.5H5.46429Z" fill="url(#paint3_linear_87_66)" />
                <defs>
                    <linearGradient id="paint0_linear_87_66" x1="2.25" y1="4.5" x2="28.9324" y2="35.6294" gradientUnits="userSpaceOnUse">
                        <stop offset="0.202906" stop-color="#EFF2F6" />
                        <stop offset="0.849731" stop-color="#B7C6CD" />
                    </linearGradient>
                    <linearGradient id="paint1_linear_87_66" x1="23.625" y1="15.1875" x2="18" y2="9.5625" gradientUnits="userSpaceOnUse">
                        <stop offset="0.251598" stop-color="#FF7E07" />
                        <stop offset="1" stop-color="#FFE607" />
                    </linearGradient>
                    <linearGradient id="paint2_linear_87_66" x1="13.5" y1="21.375" x2="21.6" y2="37.575" gradientUnits="userSpaceOnUse">
                        <stop offset="0.419" stop-color="white" />
                        <stop offset="0.705" stop-color="#EAEFEF" />
                    </linearGradient>
                    <linearGradient id="paint3_linear_87_66" x1="28.125" y1="31.5" x2="18.4915" y2="11.3573" gradientUnits="userSpaceOnUse">
                        <stop offset="0.160411" stop-color="#5200FF" />
                        <stop offset="0.849439" stop-color="#0085FF" />
                    </linearGradient>
                </defs>
            </svg>