<svg width="20" height="21" viewBox="0 0 20 21" fill="none" xmlns="http://www.w3.org/2000/svg">
    <g clip-path="url(#clip0_54_1276)">
    <path d="M19.1667 9.56667C18.9457 9.56667 18.7337 9.47887 18.5774 9.32259C18.4211 9.16631 18.3333 8.95435 18.3333 8.73334C18.3316 6.96577 17.6286 5.2711 16.3788 4.02124C15.1289 2.77138 13.4342 2.06843 11.6667 2.06667C11.4457 2.06667 11.2337 1.97887 11.0774 1.82259C10.9211 1.66631 10.8333 1.45435 10.8333 1.23334C10.8333 1.01232 10.9211 0.800361 11.0774 0.644081C11.2337 0.4878 11.4457 0.400003 11.6667 0.400003C13.8761 0.402429 15.9943 1.28118 17.5565 2.84346C19.1188 4.40574 19.9976 6.52394 20 8.73334C20 8.95435 19.9122 9.16631 19.7559 9.32259C19.5996 9.47887 19.3877 9.56667 19.1667 9.56667ZM16.6667 8.73334C16.6667 7.40725 16.1399 6.13548 15.2022 5.1978C14.2645 4.26012 12.9928 3.73334 11.6667 3.73334C11.4457 3.73334 11.2337 3.82113 11.0774 3.97741C10.9211 4.13369 10.8333 4.34566 10.8333 4.56667C10.8333 4.78768 10.9211 4.99965 11.0774 5.15593C11.2337 5.31221 11.4457 5.4 11.6667 5.4C12.5507 5.4 13.3986 5.75119 14.0237 6.37631C14.6488 7.00144 15 7.84928 15 8.73334C15 8.95435 15.0878 9.16631 15.2441 9.32259C15.4004 9.47887 15.6123 9.56667 15.8333 9.56667C16.0543 9.56667 16.2663 9.47887 16.4226 9.32259C16.5789 9.16631 16.6667 8.95435 16.6667 8.73334ZM18.4858 18.87L19.2442 17.9958C19.7268 17.5116 19.9979 16.8558 19.9979 16.1721C19.9979 15.4884 19.7268 14.8326 19.2442 14.3483C19.2183 14.3225 17.2133 12.78 17.2133 12.78C16.7321 12.3219 16.0929 12.0669 15.4286 12.0678C14.7642 12.0687 14.1258 12.3256 13.6458 12.785L12.0575 14.1233C10.761 13.5867 9.58324 12.7993 8.59191 11.8063C7.60057 10.8132 6.81518 9.63412 6.28084 8.33667L7.61417 6.75334C8.07393 6.27348 8.33108 5.6349 8.33217 4.97034C8.33326 4.30578 8.07819 3.66636 7.62 3.185C7.62 3.185 6.07584 1.1825 6.05 1.15667C5.57455 0.678127 4.9299 0.405855 4.25536 0.398682C3.58081 0.391509 2.93053 0.650012 2.445 1.11834L1.48667 1.95167C-4.175 8.52 8.01667 20.6175 14.8017 20.4C15.4868 20.404 16.1658 20.2706 16.7986 20.0079C17.4314 19.7451 18.0051 19.3582 18.4858 18.87Z" fill="url(#paint0_linear_54_1276)"/>
    </g>
    <defs>
    <linearGradient id="paint0_linear_54_1276" x1="10.0145" y1="0.398537" x2="10.0145" y2="20.4029" gradientUnits="userSpaceOnUse">
    <stop stop-color="#2E94FF"/>
    <stop offset="1" stop-color="#2ED9FF"/>
    </linearGradient>
    <clipPath id="clip0_54_1276">
    <rect width="20" height="20" fill="white" transform="translate(0 0.400002)"/>
    </clipPath>
    </defs>
    </svg>
    