<svg width="52" height="63" viewBox="0 0 52 63" fill="none" xmlns="http://www.w3.org/2000/svg">
    <path d="M39.2 24.83C38.6069 24.5042 37.9089 24.4265 37.2586 24.6139C36.6084 24.8013 36.0588 25.2385 35.73 25.83L33.84 29.3L23.24 23.89L27.51 16C27.7804 15.3187 27.7922 14.5621 27.5429 13.8728C27.2937 13.1836 26.8008 12.6094 26.1572 12.2587C25.5136 11.908 24.7639 11.805 24.0496 11.9692C23.3353 12.1334 22.7058 12.5534 22.28 13.15L18.82 19.5L18.61 19.88L13.93 28.47L9.76999 24.85C9.32509 24.4043 8.79668 24.0507 8.21498 23.8095C7.63329 23.5682 7.00973 23.444 6.37999 23.444C5.75026 23.444 5.1267 23.5682 4.54501 23.8095C3.96331 24.0507 3.4349 24.4043 2.98999 24.85C2.7726 25.0675 2.65048 25.3624 2.65048 25.67C2.65048 25.9775 2.7726 26.2724 2.98999 26.49L5.32999 28.86C8.65999 32.22 9.32999 33.52 8.68999 37.69L7.68999 43.52L24.13 52.52L26.13 48.75C27.0583 48.6794 27.9544 48.3781 28.7367 47.8734C29.5191 47.3687 30.163 46.6766 30.61 45.86L39.34 29.86L40.16 28.37C40.3339 28.0756 40.4472 27.7495 40.493 27.4107C40.5388 27.0719 40.5164 26.7274 40.4269 26.3974C40.3374 26.0675 40.1827 25.7588 39.972 25.4896C39.7613 25.2203 39.4988 24.9961 39.2 24.83Z" fill="url(#paint0_linear_300_212)" stroke="#54596E" stroke-width="2" stroke-linecap="round" stroke-linejoin="round"/>
    <path d="M26.84 29.72L35.18 14.4C35.5397 13.7092 35.6166 12.9056 35.3945 12.1591C35.1724 11.4127 34.6688 10.7818 33.99 10.4C33.2992 10.0403 32.4957 9.96339 31.7492 10.1855C31.0027 10.4075 30.3719 10.9112 29.99 11.59L21.61 26.87" fill="url(#paint1_linear_300_212)"/>
    <path d="M26.84 29.72L35.18 14.4C35.5397 13.7092 35.6166 12.9056 35.3945 12.1591C35.1724 11.4127 34.6688 10.7818 33.99 10.4C33.2992 10.0403 32.4957 9.96339 31.7492 10.1855C31.0027 10.4075 30.3719 10.9112 29.99 11.59L21.61 26.87" stroke="#54596E" stroke-width="2" stroke-linecap="round" stroke-linejoin="round"/>
    <path d="M6.51602 42.6784L1.63327 51.6451L20.3133 61.8171L25.196 52.8504L6.51602 42.6784Z" fill="white" stroke="#54596E" stroke-width="2" stroke-linecap="round" stroke-linejoin="round"/>
    <path d="M8.56002 51.3099C9.4989 51.3099 10.26 50.5488 10.26 49.6099C10.26 48.671 9.4989 47.9099 8.56002 47.9099C7.62113 47.9099 6.86002 48.671 6.86002 49.6099C6.86002 50.5488 7.62113 51.3099 8.56002 51.3099Z" fill="#54596E"/>
    <path d="M48.84 28.9999C48.5831 28.7847 48.2862 28.6225 47.9664 28.5225C47.6465 28.4226 47.31 28.3869 46.9763 28.4176C46.6426 28.4483 46.3183 28.5447 46.022 28.7013C45.7257 28.8579 45.4634 29.0715 45.25 29.3299L42.72 32.33L33.37 24.9999L39.08 18.1299C39.4791 17.514 39.6385 16.773 39.5281 16.0474C39.4176 15.3218 39.045 14.6619 38.4808 14.1925C37.9165 13.7231 37.1998 13.4768 36.4662 13.5003C35.7326 13.5238 35.0331 13.8154 34.5 14.3199L29.88 19.8799L29.6 20.2099L23.35 27.7299L20 23.3799C19.6541 22.8469 19.2058 22.3879 18.6811 22.0295C18.1564 21.6711 17.5657 21.4204 16.9434 21.292C16.321 21.1637 15.6794 21.1601 15.0557 21.2817C14.432 21.4032 13.8386 21.6473 13.31 21.9999C13.1798 22.0854 13.0682 22.1963 12.9817 22.3259C12.8953 22.4554 12.8358 22.6011 12.8069 22.7541C12.778 22.9072 12.7802 23.0645 12.8133 23.2167C12.8465 23.3689 12.91 23.5128 13 23.6399L14.83 26.4099C17.45 30.3599 17.83 31.7599 16.42 35.7299L14.32 41.2599L28.72 53.2599L31.46 49.9599C32.3946 50.0774 33.3437 49.9555 34.2183 49.6057C35.0929 49.2558 35.8643 48.6896 36.46 47.9599L48.13 33.9599L49.22 32.65C49.4418 32.3885 49.6084 32.0848 49.7097 31.7572C49.811 31.4296 49.8449 31.0849 49.8094 30.7438C49.7739 30.4027 49.6697 30.0724 49.5031 29.7727C49.3365 29.473 49.1109 29.2101 48.84 28.9999Z" fill="url(#paint2_linear_300_212)" stroke="#54596E" stroke-width="2" stroke-linecap="round" stroke-linejoin="round"/>
    <path d="M35.77 31.4399L46.93 17.9999C47.4308 17.3894 47.6708 16.6061 47.5978 15.8198C47.5247 15.0335 47.1447 14.3078 46.54 13.7999C45.9301 13.3022 45.149 13.0641 44.3652 13.1371C43.5813 13.21 42.8576 13.5882 42.35 14.1899L31.19 27.6299" fill="url(#paint3_linear_300_212)"/>
    <path d="M35.77 31.4399L46.93 17.9999C47.4308 17.3894 47.6708 16.6061 47.5978 15.8198C47.5247 15.0335 47.1447 14.3078 46.54 13.7999C45.9301 13.3022 45.149 13.0641 44.3652 13.1371C43.5813 13.21 42.8576 13.5882 42.35 14.1899L31.19 27.6299" stroke="#54596E" stroke-width="2" stroke-linecap="round" stroke-linejoin="round"/>
    <path d="M40.54 34.9999L49.85 23.7999C50.2529 23.1997 50.4042 22.4655 50.2714 21.7549C50.1386 21.0443 49.7324 20.4142 49.14 19.9999C48.6226 19.4948 47.9281 19.212 47.205 19.212C46.4819 19.212 45.7874 19.4948 45.27 19.9999L36 31.1799" fill="url(#paint4_linear_300_212)"/>
    <path d="M40.54 34.9999L49.85 23.7999C50.2529 23.1997 50.4042 22.4655 50.2714 21.7549C50.1386 21.0443 49.7324 20.4142 49.14 19.9999C48.6226 19.4948 47.9281 19.212 47.205 19.212C46.4819 19.212 45.7874 19.4948 45.27 19.9999L36 31.1799" stroke="#54596E" stroke-width="2" stroke-linecap="round" stroke-linejoin="round"/>
    <path d="M13.324 40.2128L6.79401 48.0615L23.1449 61.6652L29.6749 53.8165L13.324 40.2128Z" fill="white" stroke="#54596E" stroke-width="2" stroke-linecap="round" stroke-linejoin="round"/>
    <path opacity="0.15" d="M23.3106 61.0703L28.7533 54.5284L24.1717 50.7166L18.7289 57.2585L23.3106 61.0703Z" fill="#54596E"/>
    <path d="M13.98 49.0999C14.9189 49.0999 15.68 48.3388 15.68 47.4C15.68 46.4611 14.9189 45.7 13.98 45.7C13.0411 45.7 12.28 46.4611 12.28 47.4C12.28 48.3388 13.0411 49.0999 13.98 49.0999Z" fill="#54596E"/>
    <path d="M18.29 11.33L12.2 9.32996" stroke="#55A6FF" stroke-width="2" stroke-linecap="round" stroke-linejoin="round"/>
    <path d="M19.71 8.00996L16.97 3.82996" stroke="#55A6FF" stroke-width="2" stroke-linecap="round" stroke-linejoin="round"/>
    <path d="M23.31 8.04995L24.61 1.81995" stroke="#55A6FF" stroke-width="2" stroke-linecap="round" stroke-linejoin="round"/>
    <defs>
    <linearGradient id="paint0_linear_300_212" x1="2.65048" y1="11.8929" x2="43.1771" y2="49.665" gradientUnits="userSpaceOnUse">
    <stop stop-color="#FFE607"/>
    <stop offset="0.802569" stop-color="#FF7E07"/>
    </linearGradient>
    <linearGradient id="paint1_linear_300_212" x1="21.61" y1="10.0609" x2="40.1483" y2="23.177" gradientUnits="userSpaceOnUse">
    <stop stop-color="#FFE607"/>
    <stop offset="0.802569" stop-color="#FF7E07"/>
    </linearGradient>
    <linearGradient id="paint2_linear_300_212" x1="12.7867" y1="13.4988" x2="52.4479" y2="50.442" gradientUnits="userSpaceOnUse">
    <stop stop-color="#FFE607"/>
    <stop offset="0.802569" stop-color="#FF7E07"/>
    </linearGradient>
    <linearGradient id="paint3_linear_300_212" x1="31.19" y1="13.1241" x2="49.3971" y2="29.4473" gradientUnits="userSpaceOnUse">
    <stop stop-color="#FFE607"/>
    <stop offset="0.802569" stop-color="#FF7E07"/>
    </linearGradient>
    <linearGradient id="paint4_linear_300_212" x1="36" y1="19.212" x2="51.7129" y2="33.4623" gradientUnits="userSpaceOnUse">
    <stop stop-color="#FFE607"/>
    <stop offset="0.802569" stop-color="#FF7E07"/>
    </linearGradient>
    </defs>
    </svg>
    