<svg width="17" height="16" viewBox="0 0 17 16" fill="none" xmlns="http://www.w3.org/2000/svg">
<g clip-path="url(#clip0_146_121)">
<path d="M1.0625 4.5C1.0625 3.11929 2.25175 2 3.71875 2H13.2812C14.7482 2 15.9375 3.11929 15.9375 4.5V9.5C15.9375 10.8807 14.7482 12 13.2812 12H9.23086L5.97691 14.6797C5.30366 15.2342 4.25 14.7842 4.25 13.9422V12H3.71875C2.25175 12 1.0625 10.8807 1.0625 9.5V4.5ZM3.71875 3C2.83854 3 2.125 3.67157 2.125 4.5V9.5C2.125 10.3284 2.83854 11 3.71875 11H5.3125V13.8981L8.83164 11H13.2812C14.1614 11 14.875 10.3284 14.875 9.5V4.5C14.875 3.67157 14.1614 3 13.2812 3H3.71875Z" fill="#66676B"/>
</g>
<defs>
<clipPath id="clip0_146_121">
<rect width="17" height="16" fill="white"/>
</clipPath>
</defs>
</svg>
