<svg className="ml-[11px]" width="36" height="36" viewBox="0 0 36 36" fill="none" xmlns="http://www.w3.org/2000/svg">
                <path d="M3 33C3 26.3726 8.37258 21 15 21C21.6274 21 27 26.3726 27 33H24C24 28.0294 19.9706 24 15 24C10.0294 24 6 28.0294 6 33H3ZM15 19.5C10.0275 19.5 6 15.4725 6 10.5C6 5.5275 10.0275 1.5 15 1.5C19.9725 1.5 24 5.5275 24 10.5C24 15.4725 19.9725 19.5 15 19.5ZM15 16.5C18.315 16.5 21 13.815 21 10.5C21 7.185 18.315 4.5 15 4.5C11.685 4.5 9 7.185 9 10.5C9 13.815 11.685 16.5 15 16.5ZM27.4256 22.0542C31.5966 23.9341 34.5 28.128 34.5 33H31.5C31.5 29.346 29.3224 26.2006 26.1942 24.7906L27.4256 22.0542ZM26.3943 5.11981C29.3916 6.35555 31.5 9.30542 31.5 12.75C31.5 17.0553 28.2063 20.5878 24 20.9664V17.9469C26.545 17.5833 28.5 15.396 28.5 12.75C28.5 10.679 27.3024 8.88904 25.5615 8.03452L26.3943 5.11981Z" fill="url(#paint0_linear_87_34)" />
                <defs>
                    <linearGradient id="paint0_linear_87_34" x1="34.5" y1="33" x2="3" y2="1.5" gradientUnits="userSpaceOnUse">
                        <stop offset="0.339254" stop-color="#089953" />
                        <stop offset="1" stop-color="#16D96F" />
                    </linearGradient>
                </defs>
            </svg>