<svg width="51" height="50" viewBox="0 0 51 50" fill="none" xmlns="http://www.w3.org/2000/svg">
    <path d="M21.6905 49.7222C9.88496 47.6389 0.857178 37.3611 0.857178 25C0.857178 11.25 12.1072 0 25.8572 0C39.6072 0 50.8572 11.25 50.8572 25C50.8572 37.3611 41.8294 47.6389 30.0238 49.7222L28.635 48.6111H23.0794L21.6905 49.7222Z" fill="url(#paint0_linear_54_2915)"/>
    <path d="M35.5794 31.9445L36.6905 25.0001H30.0239V20.139C30.0239 18.1945 30.7183 16.6667 33.7739 16.6667H36.9683V10.2778C35.1628 10.0001 33.2183 9.72229 31.4128 9.72229C25.7183 9.72229 21.6906 13.1945 21.6906 19.4445V25.0001H15.4406V31.9445H21.6906V49.5834C23.0794 49.8612 24.4683 50.0001 25.8572 50.0001C27.2461 50.0001 28.635 49.8612 30.0239 49.5834V31.9445H35.5794Z" fill="white"/>
    <defs>
    <linearGradient id="paint0_linear_54_2915" x1="25.8572" y1="48.2695" x2="25.8572" y2="0" gradientUnits="userSpaceOnUse">
    <stop stop-color="#0062E0"/>
    <stop offset="1" stop-color="#19AFFF"/>
    </linearGradient>
    </defs>
    </svg>
    