<svg width="15" height="15" viewBox="0 0 15 15" fill="none" xmlns="http://www.w3.org/2000/svg">
    <path fill-rule="evenodd" clip-rule="evenodd" d="M0.877075 7.49966C0.877075 3.84198 3.84222 0.876831 7.49991 0.876831C11.1576 0.876831 14.1227 3.84198 14.1227 7.49966C14.1227 11.1573 11.1576 14.1225 7.49991 14.1225C3.84222 14.1225 0.877075 11.1573 0.877075 7.49966ZM7.49991 1.82683C4.36689 1.82683 1.82708 4.36665 1.82708 7.49966C1.82708 10.6326 4.36689 13.1725 7.49991 13.1725C10.6329 13.1725 13.1727 10.6326 13.1727 7.49966C13.1727 4.36665 10.6329 1.82683 7.49991 1.82683ZM8.24993 10.4999C8.24993 10.9141 7.91414 11.2499 7.49993 11.2499C7.08571 11.2499 6.74993 10.9141 6.74993 10.4999C6.74993 10.0857 7.08571 9.74994 7.49993 9.74994C7.91414 9.74994 8.24993 10.0857 8.24993 10.4999ZM6.05003 6.24994C6.05003 5.57205 6.63511 4.92494 7.50003 4.92494C8.36496 4.92494 8.95003 5.57205 8.95003 6.24994C8.95003 6.74112 8.68002 6.99206 8.21447 7.27488C8.16251 7.30645 8.10258 7.34125 8.03847 7.37848C7.85527 7.48487 7.63788 7.61113 7.47449 7.73843C7.23214 7.92726 6.95003 8.23192 6.95003 8.69994C6.95004 9.0037 7.19628 9.24994 7.50004 9.24994C7.8024 9.24994 8.04778 9.00595 8.05002 8.70411L8.05056 8.70324C8.05924 8.68954 8.08493 8.65729 8.15058 8.60614C8.25207 8.52706 8.36508 8.46157 8.51567 8.3743C8.59418 8.3288 8.68296 8.27735 8.78559 8.215C9.32004 7.89032 10.05 7.35376 10.05 6.24994C10.05 4.92783 8.93511 3.82494 7.50003 3.82494C6.06496 3.82494 4.95003 4.92783 4.95003 6.24994C4.95003 6.5537 5.19628 6.79994 5.50003 6.79994C5.80379 6.79994 6.05003 6.5537 6.05003 6.24994Z" fill="url(#paint0_linear_306_184)"/>
    <defs>
    <linearGradient id="paint0_linear_306_184" x1="0.877075" y1="0.876831" x2="14.1228" y2="14.1225" gradientUnits="userSpaceOnUse">
    <stop stop-color="#FFE607"/>
    <stop offset="0.802569" stop-color="#FF7E07"/>
    </linearGradient>
    </defs>
    </svg>
    