<svg width="17" height="16" viewBox="0 0 17 16" fill="none" xmlns="http://www.w3.org/2000/svg">
<path d="M12.75 14.1666H12.7499C12.7185 14.1666 12.6881 14.1607 12.6606 14.15C12.6332 14.1393 12.6101 14.1243 12.5921 14.1073L12.576 14.0922L12.5587 14.0786L8.80952 11.1232L8.49985 10.8792L8.1903 11.1234L4.40213 14.112L4.40058 14.1133C4.3706 14.1371 4.33087 14.1547 4.28533 14.1606C4.23975 14.1665 4.19408 14.1598 4.15454 14.1427C4.11517 14.1257 4.08619 14.1005 4.06785 14.0739C4.05014 14.0482 4.04223 14.0214 4.04166 13.9963V1.99992C4.04166 1.96583 4.05576 1.92653 4.09181 1.89261C4.12887 1.85773 4.18529 1.83325 4.24999 1.83325H12.75C12.8147 1.83325 12.8711 1.85773 12.9082 1.89261C12.9442 1.92653 12.9583 1.96583 12.9583 1.99992V13.9999C12.9583 14.034 12.9442 14.0733 12.9082 14.1072C12.8711 14.1421 12.8147 14.1666 12.75 14.1666Z" fill="white" stroke="#66676B"/>
</svg>
