<svg className="ml-[11px]" width="36" height="36" viewBox="0 0 36 36" fill="none" xmlns="http://www.w3.org/2000/svg">
                <g clip-path="url(#clip0_87_103)">
                    <path d="M27 33C26.803 33 26.608 32.9612 26.426 32.8858C26.244 32.8104 26.0787 32.6999 25.9395 32.5605L18 25.911L9.978 32.6355C9.75966 32.82 9.49331 32.9386 9.21008 32.9773C8.92685 33.0161 8.63844 32.9734 8.37856 32.8543C8.11868 32.7353 7.89806 32.5447 7.74248 32.3048C7.58691 32.065 7.5028 31.7859 7.5 31.5V4.5C7.5 4.10218 7.65804 3.72064 7.93934 3.43934C8.22064 3.15804 8.60218 3 9 3H27C27.3978 3 27.7794 3.15804 28.0607 3.43934C28.342 3.72064 28.5 4.10218 28.5 4.5V31.5C28.5 31.8978 28.342 32.2794 28.0607 32.5607C27.7794 32.842 27.3978 33 27 33Z" fill="url(#paint0_linear_87_103)" />
                </g>
                <defs>
                    <linearGradient id="paint0_linear_87_103" x1="6.97499" y1="21.2609" x2="30.3069" y2="24.4624" gradientUnits="userSpaceOnUse">
                        <stop stop-color="#FFE607" />
                        <stop offset="0.879282" stop-color="#FF7E07" />
                    </linearGradient>
                    <clipPath id="clip0_87_103">
                        <rect width="36" height="36" fill="white" />
                    </clipPath>
                </defs>
            </svg>