<svg width="24" height="24" viewBox="0 0 24 24" fill="none" xmlns="http://www.w3.org/2000/svg">
<path fill-rule="evenodd" clip-rule="evenodd" d="M16.3102 17.7999L10.4844 20.7128C6.37678 22.7666 4.32298 23.7935 3.13232 23.4782C1.99963 23.1784 1.11498 22.2937 0.815114 21.161C0.499902 19.9704 1.5268 17.9166 3.58059 13.809C3.91036 13.1495 4.07525 12.8197 4.14358 12.4746C4.20981 12.1401 4.20981 11.7959 4.14358 11.4614C4.07525 11.1163 3.91036 10.7865 3.58059 10.127C1.5268 6.01941 0.499902 3.96561 0.815117 2.77495C1.11498 1.64226 1.99963 0.757617 3.13232 0.457749C4.32298 0.142535 6.37678 1.16943 10.4844 3.22323L16.3102 6.13613C21.3995 8.6808 23.9442 9.95314 23.9442 11.968C23.9442 13.9829 21.3995 15.2552 16.3102 17.7999Z" fill="url(#paint0_linear_334_182)"/>
<defs>
<linearGradient id="paint0_linear_334_182" x1="16.4533" y1="3.48272" x2="-0.517264" y2="20.4533" gradientUnits="userSpaceOnUse">
<stop stop-color="#2E94FF"/>
<stop offset="1" stop-color="#2ED9FF"/>
</linearGradient>
</defs>
</svg>
