<svg width="84" height="89" viewBox="0 0 84 89" fill="none" xmlns="http://www.w3.org/2000/svg">
    <g filter="url(#filter0_d_54_2283)">
    <path fill-rule="evenodd" clip-rule="evenodd" d="M49.1152 0.813065C47.6339 0.204102 45.7559 0.204102 42 0.204102C38.2441 0.204102 36.3661 0.204102 34.8848 0.813065C32.9096 1.62502 31.3404 3.18241 30.5222 5.14263C30.1488 6.03746 30.0026 7.07811 29.9454 8.59607C29.8613 10.8268 28.7086 12.8917 26.7607 14.0078C24.8127 15.124 22.4346 15.0823 20.4459 14.0391C19.0927 13.3293 18.1115 12.9346 17.144 12.8082C15.0244 12.5312 12.8807 13.1013 11.1846 14.3929C9.91255 15.3616 8.97357 16.9757 7.09561 20.2038C5.21766 23.432 4.27868 25.046 4.06939 26.6237C3.79034 28.7273 4.36472 30.8547 5.66619 32.538C6.26022 33.3063 7.09509 33.9522 8.39082 34.7602C10.2957 35.948 11.5213 37.9715 11.5212 40.2042C11.521 42.4366 10.2955 44.4598 8.39081 45.6475C7.09486 46.4556 6.25989 47.1015 5.66579 47.8699C4.36433 49.5532 3.78994 51.6806 4.06899 53.7842C4.27828 55.3619 5.21726 56.976 7.09522 60.2041C8.97318 63.4322 9.91215 65.0463 11.1842 66.015C12.8803 67.3067 15.024 67.8767 17.1436 67.5998C18.1111 67.4733 19.0922 67.0787 20.4453 66.3689C22.4341 65.3257 24.8124 65.284 26.7605 66.4003C28.7086 67.5165 29.8613 69.5815 29.9454 71.8124C30.0026 73.3302 30.1488 74.3708 30.5222 75.2656C31.3404 77.2258 32.9096 78.7832 34.8848 79.5951C36.3661 80.2041 38.2441 80.2041 42 80.2041C45.7559 80.2041 47.6339 80.2041 49.1152 79.5951C51.0904 78.7832 52.6596 77.2258 53.4778 75.2656C53.8513 74.3707 53.9974 73.33 54.0546 71.812C54.1386 69.5813 55.2913 67.5165 57.2391 66.4002C59.1872 65.2839 61.5656 65.3255 63.5544 66.3687C64.9075 67.0784 65.8885 67.4731 66.856 67.5995C68.9756 67.8764 71.1193 67.3064 72.8154 66.0148C74.0874 65.046 75.0264 63.432 76.9044 60.2038C78.7823 56.9757 79.7213 55.3616 79.9306 53.7839C80.2097 51.6804 79.6353 49.5529 78.3338 47.8696C77.7397 47.1013 76.9048 46.4554 75.609 45.6473C73.7042 44.4596 72.4787 42.4362 72.4788 40.2037C72.479 37.9715 73.7044 35.9484 75.609 34.7609C76.905 33.9527 77.7401 33.3067 78.3342 32.5383C79.6357 30.855 80.2101 28.7276 79.931 26.624C79.7217 25.0463 78.7827 23.4322 76.9048 20.2041C75.0268 16.976 74.0878 15.3619 72.8158 14.3932C71.1197 13.1015 68.976 12.5315 66.8564 12.8084C65.8889 12.9349 64.9078 13.3295 63.5547 14.0393C61.5659 15.0825 59.1876 15.1242 57.2395 14.0079C55.2914 12.8917 54.1387 10.8267 54.0546 8.59586C53.9974 7.07801 53.8512 6.03742 53.4778 5.14263C52.6596 3.18241 51.0904 1.62502 49.1152 0.813065Z" fill="url(#paint0_linear_54_2283)"/>
    <path d="M54.089 40.2041C54.089 46.8315 48.6755 52.2041 41.9976 52.2041C35.3197 52.2041 29.9062 46.8315 29.9062 40.2041C29.9062 33.5767 35.3197 28.2041 41.9976 28.2041C48.6755 28.2041 54.089 33.5767 54.089 40.2041Z" fill="white"/>
    </g>
    <defs>
    <filter id="filter0_d_54_2283" x="0" y="0.204102" width="84" height="88" filterUnits="userSpaceOnUse" color-interpolation-filters="sRGB">
    <feFlood flood-opacity="0" result="BackgroundImageFix"/>
    <feColorMatrix in="SourceAlpha" type="matrix" values="0 0 0 0 0 0 0 0 0 0 0 0 0 0 0 0 0 0 127 0" result="hardAlpha"/>
    <feOffset dy="4"/>
    <feGaussianBlur stdDeviation="2"/>
    <feComposite in2="hardAlpha" operator="out"/>
    <feColorMatrix type="matrix" values="0 0 0 0 0 0 0 0 0 0 0 0 0 0 0 0 0 0 0.25 0"/>
    <feBlend mode="normal" in2="BackgroundImageFix" result="effect1_dropShadow_54_2283"/>
    <feBlend mode="normal" in="SourceGraphic" in2="effect1_dropShadow_54_2283" result="shape"/>
    </filter>
    <linearGradient id="paint0_linear_54_2283" x1="54.5" y1="0.204099" x2="13" y2="62.2041" gradientUnits="userSpaceOnUse">
    <stop stop-color="#1C5AE0"/>
    <stop offset="0.703125" stop-color="#00C2FF"/>
    <stop offset="1" stop-color="white"/>
    </linearGradient>
    </defs>
    </svg>    