<svg className="ml-[11px]" width="36" height="36" viewBox="0 0 36 36" fill="none" xmlns="http://www.w3.org/2000/svg">
                <path fill-rule="evenodd" clip-rule="evenodd" d="M2.25 7.875C2.25 6.01104 3.76104 4.5 5.625 4.5H30.375C32.239 4.5 33.75 6.01104 33.75 7.875V28.125C33.75 29.989 32.239 31.5 30.375 31.5H5.625C3.76104 31.5 2.25 29.989 2.25 28.125V7.875ZM5.625 7.3125C5.625 7.00184 5.87684 6.75 6.1875 6.75H9.5625C9.87316 6.75 10.125 7.00184 10.125 7.3125C10.125 7.62316 9.87316 7.875 9.5625 7.875H6.1875C5.87684 7.875 5.625 7.62316 5.625 7.3125ZM6.1875 28.125C5.87684 28.125 5.625 28.3768 5.625 28.6875C5.625 28.9982 5.87684 29.25 6.1875 29.25H9.5625C9.87316 29.25 10.125 28.9982 10.125 28.6875C10.125 28.3768 9.87316 28.125 9.5625 28.125H6.1875ZM12.375 7.3125C12.375 7.00184 12.6268 6.75 12.9375 6.75H16.3125C16.6232 6.75 16.875 7.00184 16.875 7.3125C16.875 7.62316 16.6232 7.875 16.3125 7.875H12.9375C12.6268 7.875 12.375 7.62316 12.375 7.3125ZM12.9375 28.125C12.6268 28.125 12.375 28.3768 12.375 28.6875C12.375 28.9982 12.6268 29.25 12.9375 29.25H16.3125C16.6232 29.25 16.875 28.9982 16.875 28.6875C16.875 28.3768 16.6232 28.125 16.3125 28.125H12.9375ZM19.125 7.3125C19.125 7.00184 19.3768 6.75 19.6875 6.75H23.0625C23.3732 6.75 23.625 7.00184 23.625 7.3125C23.625 7.62316 23.3732 7.875 23.0625 7.875H19.6875C19.3768 7.875 19.125 7.62316 19.125 7.3125ZM19.6875 28.125C19.3768 28.125 19.125 28.3768 19.125 28.6875C19.125 28.9982 19.3768 29.25 19.6875 29.25H23.0625C23.3732 29.25 23.625 28.9982 23.625 28.6875C23.625 28.3768 23.3732 28.125 23.0625 28.125H19.6875ZM25.875 7.3125C25.875 7.00184 26.1268 6.75 26.4375 6.75H29.8125C30.1232 6.75 30.375 7.00184 30.375 7.3125C30.375 7.62316 30.1232 7.875 29.8125 7.875H26.4375C26.1268 7.875 25.875 7.62316 25.875 7.3125ZM26.4375 28.125C26.1268 28.125 25.875 28.3768 25.875 28.6875C25.875 28.9982 26.1268 29.25 26.4375 29.25H29.8125C30.1232 29.25 30.375 28.9982 30.375 28.6875C30.375 28.3768 30.1232 28.125 29.8125 28.125H26.4375Z" fill="url(#paint0_linear_87_154)" />
                <path d="M29.5 10.125H6.5C5.39543 10.125 4.5 11.0204 4.5 12.125V23.875C4.5 24.9796 5.39543 25.875 6.5 25.875H29.5C30.6046 25.875 31.5 24.9796 31.5 23.875V12.125C31.5 11.0204 30.6046 10.125 29.5 10.125Z" fill="url(#paint1_linear_87_154)" />
                <path d="M14.0625 21.6629V14.337C14.0625 13.7206 14.7071 13.3162 15.2623 13.5842L22.59 17.1223C23.2105 17.4219 23.2225 18.3012 22.6104 18.6176L15.2827 22.4055C14.7261 22.6932 14.0625 22.2893 14.0625 21.6629Z" fill="url(#paint2_linear_87_154)" />
                <defs>
                    <linearGradient id="paint0_linear_87_154" x1="33.75" y1="31.5" x2="7.06765" y2="0.370587" gradientUnits="userSpaceOnUse">
                        <stop offset="0.210629" stop-color="#2E2E41" />
                        <stop offset="1" stop-color="#566C80" />
                    </linearGradient>
                    <linearGradient id="paint1_linear_87_154" x1="18" y1="10.125" x2="18" y2="25.875" gradientUnits="userSpaceOnUse">
                        <stop stop-color="#F15700" />
                        <stop offset="1" stop-color="#FF0000" />
                    </linearGradient>
                    <linearGradient id="paint2_linear_87_154" x1="14.0625" y1="13.5" x2="23.0625" y2="22.5" gradientUnits="userSpaceOnUse">
                        <stop stop-color="white" />
                        <stop offset="0.705" stop-color="#EAEFEF" />
                    </linearGradient>
                </defs>
            </svg>