<svg width="45" height="45" viewBox="0 0 20 20" fill="none" xmlns="http://www.w3.org/2000/svg">
<mask id="path-1-outside-1_82_386" maskUnits="userSpaceOnUse" x="0" y="0" width="20" height="20" fill="black">
<rect fill="white" width="20" height="20"/>
<path d="M19 10C19 12.3869 18.0518 14.6761 16.364 16.364C14.6761 18.0518 12.3869 19 10 19C7.61305 19 5.32387 18.0518 3.63604 16.364C1.94821 14.6761 1 12.3869 1 10C1 7.61305 1.94821 5.32387 3.63604 3.63604C5.32387 1.94821 7.61305 1 10 1C12.3869 1 14.6761 1.94821 16.364 3.63604C18.0518 5.32387 19 7.61305 19 10Z"/>
</mask>
<path d="M19 10C19 12.3869 18.0518 14.6761 16.364 16.364C14.6761 18.0518 12.3869 19 10 19C7.61305 19 5.32387 18.0518 3.63604 16.364C1.94821 14.6761 1 12.3869 1 10C1 7.61305 1.94821 5.32387 3.63604 3.63604C5.32387 1.94821 7.61305 1 10 1C12.3869 1 14.6761 1.94821 16.364 3.63604C18.0518 5.32387 19 7.61305 19 10Z" fill="url(#paint0_linear_82_386)"/>
<path d="M10 19V20V19ZM1 10H0H1ZM10 1V0V1ZM18 10C18 12.1217 17.1571 14.1566 15.6569 15.6569L17.0711 17.0711C18.9464 15.1957 20 12.6522 20 10H18ZM15.6569 15.6569C14.1566 17.1571 12.1217 18 10 18V20C12.6522 20 15.1957 18.9464 17.0711 17.0711L15.6569 15.6569ZM10 18C7.87827 18 5.84344 17.1571 4.34315 15.6569L2.92893 17.0711C4.8043 18.9464 7.34784 20 10 20V18ZM4.34315 15.6569C2.84285 14.1566 2 12.1217 2 10H0C0 12.6522 1.05357 15.1957 2.92893 17.0711L4.34315 15.6569ZM2 10C2 7.87827 2.84285 5.84344 4.34315 4.34315L2.92893 2.92893C1.05357 4.8043 0 7.34784 0 10H2ZM4.34315 4.34315C5.84344 2.84285 7.87827 2 10 2V0C7.34784 0 4.8043 1.05357 2.92893 2.92893L4.34315 4.34315ZM10 2C12.1217 2 14.1566 2.84285 15.6569 4.34315L17.0711 2.92893C15.1957 1.05357 12.6522 0 10 0V2ZM15.6569 4.34315C17.1571 5.84344 18 7.87827 18 10H20C20 7.34784 18.9464 4.8043 17.0711 2.92893L15.6569 4.34315Z" fill="white" mask="url(#path-1-outside-1_82_386)"/>
<path d="M7.34836 13.249C7.17061 15.3246 8.16511 16.75 9.99999 16.75C11.8337 16.75 12.8294 15.3246 12.6516 13.249C12.475 11.1722 11.3972 10 9.99999 10C8.60274 10 7.52499 11.1722 7.34836 13.249Z" fill="url(#paint1_linear_82_386)"/>
<path d="M4.9375 7.1875C4.9375 6.256 5.56638 5.5 6.34375 5.5C7.12112 5.5 7.75 6.256 7.75 7.1875C7.75 8.12013 7.12112 8.875 6.34375 8.875C5.56638 8.875 4.9375 8.12013 4.9375 7.1875ZM12.25 7.1875C12.25 6.256 12.88 5.5 13.6562 5.5C14.4336 5.5 15.0625 6.256 15.0625 7.1875C15.0625 8.12013 14.4336 8.875 13.6562 8.875C12.88 8.875 12.25 8.12013 12.25 7.1875Z" fill="url(#paint2_linear_82_386)"/>
<g filter="url(#filter0_i_82_386)">
<path d="M4.9375 7.1875C4.9375 6.256 5.56638 5.5 6.34375 5.5C7.12112 5.5 7.75 6.256 7.75 7.1875C7.75 8.12013 7.12112 8.875 6.34375 8.875C5.56638 8.875 4.9375 8.12013 4.9375 7.1875ZM12.25 7.1875C12.25 6.256 12.88 5.5 13.6562 5.5C14.4336 5.5 15.0625 6.256 15.0625 7.1875C15.0625 8.12013 14.4336 8.875 13.6562 8.875C12.88 8.875 12.25 8.12013 12.25 7.1875Z" fill="black"/>
</g>
<path d="M6.04115 6.13795C6.2504 6.1852 6.3674 6.42145 6.30215 6.66557C6.23803 6.91082 6.0164 7.07057 5.80715 7.02332C5.5979 6.97607 5.4809 6.73982 5.54615 6.49457C5.61028 6.25157 5.8319 6.08957 6.04115 6.13795ZM13.5314 6.20882C13.7632 6.2617 13.8937 6.52382 13.8217 6.79382C13.7497 7.0672 13.5044 7.24382 13.2715 7.19207C13.0398 7.14032 12.9093 6.87707 12.9813 6.60595C13.0522 6.3337 13.2985 6.15595 13.5325 6.20882H13.5314Z" fill="#4E506A"/>
<g filter="url(#filter1_d_82_386)">
<path d="M13.4515 2.90793C13.51 2.9023 13.5685 2.90005 13.6281 2.90005C14.176 2.90005 14.7419 3.12955 15.1716 3.5323C15.2491 3.60617 15.295 3.7072 15.2996 3.81419C15.3043 3.92117 15.2672 4.02578 15.1964 4.10605C15.1621 4.14542 15.1202 4.17746 15.0733 4.20023C15.0263 4.223 14.9753 4.23604 14.9231 4.23856C14.871 4.24108 14.8189 4.23304 14.77 4.2149C14.721 4.19677 14.6763 4.16893 14.6384 4.13305C14.329 3.84168 13.9004 3.68305 13.5224 3.71793C13.3912 3.72774 13.2639 3.76617 13.1492 3.8305C13.0345 3.89484 12.9353 3.98352 12.8586 4.0903C12.8278 4.13216 12.7889 4.16741 12.7442 4.194C12.6996 4.22058 12.6501 4.23795 12.5986 4.24508C12.5471 4.25221 12.4947 4.24896 12.4445 4.23551C12.3943 4.22207 12.3473 4.19871 12.3062 4.1668C12.2222 4.10005 12.1673 4.00326 12.1533 3.89685C12.1392 3.79044 12.167 3.68272 12.2309 3.59643C12.3726 3.40039 12.5551 3.23734 12.7658 3.1185C12.9765 2.99965 13.2104 2.92782 13.4515 2.90793ZM4.82837 3.5323C5.24548 3.13562 5.79632 2.90998 6.37187 2.90005C6.64377 2.89416 6.91303 2.95446 7.15644 3.07578C7.39986 3.19709 7.61012 3.37577 7.76912 3.59643C7.83279 3.68269 7.86062 3.79024 7.84678 3.89656C7.83294 4.00288 7.7785 4.09972 7.69487 4.1668C7.65374 4.19874 7.60665 4.22212 7.55635 4.23558C7.50605 4.24903 7.45357 4.2523 7.402 4.24517C7.35042 4.23804 7.30079 4.22067 7.25603 4.19407C7.21127 4.16747 7.17229 4.13219 7.14137 4.0903C7.06459 3.98357 6.9654 3.89493 6.85073 3.8306C6.73607 3.76628 6.60872 3.72782 6.47762 3.71793C6.10074 3.68305 5.67099 3.84168 5.36162 4.13305C5.32372 4.16893 5.27895 4.19677 5.23002 4.2149C5.18108 4.23304 5.12898 4.24108 5.07686 4.23856C5.02473 4.23604 4.97365 4.223 4.9267 4.20023C4.87974 4.17746 4.83787 4.14542 4.80362 4.10605C4.73274 4.02578 4.69572 3.92117 4.70034 3.81419C4.70495 3.7072 4.75084 3.60617 4.82837 3.5323Z" fill="black"/>
</g>
<path d="M13.4515 2.90793C13.51 2.9023 13.5685 2.90005 13.6281 2.90005C14.176 2.90005 14.7419 3.12955 15.1716 3.5323C15.2491 3.60617 15.295 3.7072 15.2996 3.81419C15.3043 3.92117 15.2672 4.02578 15.1964 4.10605C15.1621 4.14542 15.1202 4.17746 15.0733 4.20023C15.0263 4.223 14.9753 4.23604 14.9231 4.23856C14.871 4.24108 14.8189 4.23304 14.77 4.2149C14.721 4.19677 14.6763 4.16893 14.6384 4.13305C14.329 3.84168 13.9004 3.68305 13.5224 3.71793C13.3912 3.72774 13.2639 3.76617 13.1492 3.8305C13.0345 3.89484 12.9353 3.98352 12.8586 4.0903C12.8278 4.13216 12.7889 4.16741 12.7442 4.194C12.6996 4.22058 12.6501 4.23795 12.5986 4.24508C12.5471 4.25221 12.4947 4.24896 12.4445 4.23551C12.3943 4.22207 12.3473 4.19871 12.3062 4.1668C12.2222 4.10005 12.1673 4.00326 12.1533 3.89685C12.1392 3.79044 12.167 3.68272 12.2309 3.59643C12.3726 3.40039 12.5551 3.23734 12.7658 3.1185C12.9765 2.99965 13.2104 2.92782 13.4515 2.90793ZM4.82837 3.5323C5.24548 3.13562 5.79632 2.90998 6.37187 2.90005C6.64377 2.89416 6.91303 2.95446 7.15644 3.07578C7.39986 3.19709 7.61012 3.37577 7.76912 3.59643C7.83279 3.68269 7.86062 3.79024 7.84678 3.89656C7.83294 4.00288 7.7785 4.09972 7.69487 4.1668C7.65374 4.19874 7.60665 4.22212 7.55635 4.23558C7.50605 4.24903 7.45357 4.2523 7.402 4.24517C7.35042 4.23804 7.30079 4.22067 7.25603 4.19407C7.21127 4.16747 7.17229 4.13219 7.14137 4.0903C7.06459 3.98357 6.9654 3.89493 6.85073 3.8306C6.73607 3.76628 6.60872 3.72782 6.47762 3.71793C6.10074 3.68305 5.67099 3.84168 5.36162 4.13305C5.32372 4.16893 5.27895 4.19677 5.23002 4.2149C5.18108 4.23304 5.12898 4.24108 5.07686 4.23856C5.02473 4.23604 4.97365 4.223 4.9267 4.20023C4.87974 4.17746 4.83787 4.14542 4.80362 4.10605C4.73274 4.02578 4.69572 3.92117 4.70034 3.81419C4.70495 3.7072 4.75084 3.60617 4.82837 3.5323Z" fill="url(#paint3_linear_82_386)"/>
<defs>
<filter id="filter0_i_82_386" x="4.9375" y="5.5" width="10.125" height="3.375" filterUnits="userSpaceOnUse" color-interpolation-filters="sRGB">
<feFlood flood-opacity="0" result="BackgroundImageFix"/>
<feBlend mode="normal" in="SourceGraphic" in2="BackgroundImageFix" result="shape"/>
<feColorMatrix in="SourceAlpha" type="matrix" values="0 0 0 0 0 0 0 0 0 0 0 0 0 0 0 0 0 0 127 0" result="hardAlpha"/>
<feOffset/>
<feGaussianBlur stdDeviation="0.5"/>
<feComposite in2="hardAlpha" operator="arithmetic" k2="-1" k3="1"/>
<feColorMatrix type="matrix" values="0 0 0 0 0.0980392 0 0 0 0 0.101961 0 0 0 0 0.2 0 0 0 0.819684 0"/>
<feBlend mode="normal" in2="shape" result="effect1_innerShadow_82_386"/>
</filter>
<filter id="filter1_d_82_386" x="1.69995" y="0.899658" width="16.6001" height="7.34912" filterUnits="userSpaceOnUse" color-interpolation-filters="sRGB">
<feFlood flood-opacity="0" result="BackgroundImageFix"/>
<feColorMatrix in="SourceAlpha" type="matrix" values="0 0 0 0 0 0 0 0 0 0 0 0 0 0 0 0 0 0 127 0" result="hardAlpha"/>
<feOffset dy="1"/>
<feGaussianBlur stdDeviation="1.5"/>
<feColorMatrix type="matrix" values="0 0 0 0 0.803922 0 0 0 0 0.388235 0 0 0 0 0.00392157 0 0 0 0.145679 0"/>
<feBlend mode="normal" in2="BackgroundImageFix" result="effect1_dropShadow_82_386"/>
<feBlend mode="normal" in="SourceGraphic" in2="effect1_dropShadow_82_386" result="shape"/>
</filter>
<linearGradient id="paint0_linear_82_386" x1="10" y1="2.845" x2="10" y2="19" gradientUnits="userSpaceOnUse">
<stop stop-color="#FEEA70"/>
<stop offset="1" stop-color="#F69B30"/>
</linearGradient>
<linearGradient id="paint1_linear_82_386" x1="9.99998" y1="10" x2="9.99998" y2="16.75" gradientUnits="userSpaceOnUse">
<stop stop-color="#472315"/>
<stop offset="1" stop-color="#8B3A0E"/>
</linearGradient>
<linearGradient id="paint2_linear_82_386" x1="10" y1="5.5" x2="10" y2="8.875" gradientUnits="userSpaceOnUse">
<stop stop-color="#191A33"/>
<stop offset="0.87162" stop-color="#3B426A"/>
</linearGradient>
<linearGradient id="paint3_linear_82_386" x1="9.99999" y1="2.89966" x2="9.99999" y2="4.24884" gradientUnits="userSpaceOnUse">
<stop stop-color="#E78E0D"/>
<stop offset="1" stop-color="#CB6000"/>
</linearGradient>
</defs>
</svg>
