<svg width="45" height="45" viewBox="0 0 20 20" fill="none" xmlns="http://www.w3.org/2000/svg">
<mask id="path-1-outside-1_82_419" maskUnits="userSpaceOnUse" x="0" y="0" width="20" height="20" fill="black">
<rect fill="white" width="20" height="20"/>
<path d="M19 10C19 12.3869 18.0518 14.6761 16.364 16.364C14.6761 18.0518 12.3869 19 10 19C7.61305 19 5.32387 18.0518 3.63604 16.364C1.94821 14.6761 1 12.3869 1 10C1 7.61305 1.94821 5.32387 3.63604 3.63604C5.32387 1.94821 7.61305 1 10 1C12.3869 1 14.6761 1.94821 16.364 3.63604C18.0518 5.32387 19 7.61305 19 10Z"/>
</mask>
<path d="M19 10C19 12.3869 18.0518 14.6761 16.364 16.364C14.6761 18.0518 12.3869 19 10 19C7.61305 19 5.32387 18.0518 3.63604 16.364C1.94821 14.6761 1 12.3869 1 10C1 7.61305 1.94821 5.32387 3.63604 3.63604C5.32387 1.94821 7.61305 1 10 1C12.3869 1 14.6761 1.94821 16.364 3.63604C18.0518 5.32387 19 7.61305 19 10Z" fill="url(#paint0_linear_82_419)"/>
<path d="M10 19V20V19ZM1 10H0H1ZM10 1V0V1ZM18 10C18 12.1217 17.1571 14.1566 15.6569 15.6569L17.0711 17.0711C18.9464 15.1957 20 12.6522 20 10H18ZM15.6569 15.6569C14.1566 17.1571 12.1217 18 10 18V20C12.6522 20 15.1957 18.9464 17.0711 17.0711L15.6569 15.6569ZM10 18C7.87827 18 5.84344 17.1571 4.34315 15.6569L2.92893 17.0711C4.8043 18.9464 7.34784 20 10 20V18ZM4.34315 15.6569C2.84285 14.1566 2 12.1217 2 10H0C0 12.6522 1.05357 15.1957 2.92893 17.0711L4.34315 15.6569ZM2 10C2 7.87827 2.84285 5.84344 4.34315 4.34315L2.92893 2.92893C1.05357 4.8043 0 7.34784 0 10H2ZM4.34315 4.34315C5.84344 2.84285 7.87827 2 10 2V0C7.34784 0 4.8043 1.05357 2.92893 2.92893L4.34315 4.34315ZM10 2C12.1217 2 14.1566 2.84285 15.6569 4.34315L17.0711 2.92893C15.1957 1.05357 12.6522 0 10 0V2ZM15.6569 4.34315C17.1571 5.84344 18 7.87827 18 10H20C20 7.34784 18.9464 4.8043 17.0711 2.92893L15.6569 4.34315Z" fill="white" mask="url(#path-1-outside-1_82_419)"/>
<path d="M6.99963 15.3606C6.99963 15.5148 7.10538 15.625 7.28088 15.625C7.67576 15.625 8.22138 14.9219 10 14.9219C11.7786 14.9219 12.3254 15.625 12.7191 15.625C12.8946 15.625 13.0004 15.5148 13.0004 15.3606C13.0004 14.914 12.0565 13.375 10 13.375C7.94351 13.375 6.99963 14.914 6.99963 15.3606Z" fill="url(#paint1_linear_82_419)"/>
<path d="M5.04893 10.9C5.04893 9.98873 5.62155 9.25073 6.32468 9.25073C7.03005 9.25073 7.60043 9.98873 7.60043 10.9C7.60043 11.2802 7.5003 11.6312 7.33268 11.9102C7.25774 12.0361 7.13597 12.1271 6.99405 12.1634C6.83655 12.205 6.59693 12.25 6.32468 12.25C6.0513 12.25 5.81505 12.205 5.6553 12.1634C5.51369 12.1271 5.39229 12.036 5.3178 11.9102C5.1383 11.6041 5.04537 11.2549 5.04893 10.9ZM12.3997 10.9C12.3997 9.98873 12.9712 9.25073 13.6743 9.25073C14.3797 9.25073 14.9501 9.98873 14.9501 10.9C14.9501 11.2802 14.8499 11.6312 14.6823 11.9102C14.6453 11.9726 14.5963 12.0271 14.5382 12.0705C14.4801 12.114 14.414 12.1455 14.3437 12.1634C13.905 12.277 13.4447 12.277 13.0061 12.1634C12.9357 12.1455 12.8696 12.114 12.8115 12.0705C12.7534 12.0271 12.7044 11.9726 12.6674 11.9102C12.4883 11.604 12.3957 11.2548 12.3997 10.9Z" fill="url(#paint2_linear_82_419)"/>
<g filter="url(#filter0_i_82_419)">
<path d="M5.04893 10.9C5.04893 9.98873 5.62155 9.25073 6.32468 9.25073C7.03005 9.25073 7.60043 9.98873 7.60043 10.9C7.60043 11.2802 7.5003 11.6312 7.33268 11.9102C7.25774 12.0361 7.13597 12.1271 6.99405 12.1634C6.83655 12.205 6.59693 12.25 6.32468 12.25C6.0513 12.25 5.81505 12.205 5.6553 12.1634C5.51369 12.1271 5.39229 12.036 5.3178 11.9102C5.1383 11.6041 5.04537 11.2549 5.04893 10.9ZM12.3997 10.9C12.3997 9.98873 12.9712 9.25073 13.6743 9.25073C14.3797 9.25073 14.9501 9.98873 14.9501 10.9C14.9501 11.2802 14.8499 11.6312 14.6823 11.9102C14.6453 11.9726 14.5963 12.0271 14.5382 12.0705C14.4801 12.114 14.414 12.1455 14.3437 12.1634C13.905 12.277 13.4447 12.277 13.0061 12.1634C12.9357 12.1455 12.8696 12.114 12.8115 12.0705C12.7534 12.0271 12.7044 11.9726 12.6674 11.9102C12.4883 11.604 12.3957 11.2548 12.3997 10.9Z" fill="black"/>
</g>
<path d="M6.19301 9.98424C6.33701 10.1249 6.34601 10.4027 6.21213 10.6041C6.07713 10.8044 5.85213 10.8539 5.70813 10.7121C5.56413 10.5715 5.55626 10.2936 5.68901 10.0934C5.82401 9.89199 6.04901 9.84362 6.19301 9.98424ZM13.4931 9.98424C13.6371 10.1249 13.6461 10.4027 13.5134 10.6041C13.3784 10.8044 13.1534 10.8539 13.0071 10.7121C12.8643 10.5715 12.8564 10.2936 12.9903 10.0934C13.1241 9.89199 13.3491 9.84362 13.4931 9.98424Z" fill="#4E506A"/>
<path d="M5.67667 6.79716C6.05017 6.62503 6.34717 6.55078 6.57779 6.55078C6.88942 6.55078 7.08517 6.68466 7.19654 6.89503C7.39342 7.26516 7.30454 7.34616 6.97379 7.41141C5.72954 7.66341 4.47967 8.47116 3.93742 8.97516C3.59879 9.29016 3.27479 8.94141 3.44692 8.66691C3.62017 8.39241 4.31767 7.42378 5.67667 6.79716ZM12.8035 6.89503C12.9149 6.68466 13.1107 6.55078 13.4223 6.55078C13.654 6.55078 13.9499 6.62503 14.3234 6.79716C15.6824 7.42378 16.3799 8.39241 16.552 8.66691C16.7242 8.94141 16.4013 9.29016 16.0627 8.97516C15.5193 8.47116 14.2705 7.66341 13.0252 7.41141C12.6944 7.34616 12.6078 7.26516 12.8035 6.89503Z" fill="url(#paint3_linear_82_419)"/>
<path d="M16.1875 19C15.256 19 14.5 18.1585 14.5 17.1201C14.5 16.0829 14.9005 15.382 15.2234 14.7048C15.8961 13.2895 16.0289 13.0938 16.1875 13.0938C16.3461 13.0938 16.4789 13.2895 17.1516 14.7048C17.4745 15.382 17.875 16.0829 17.875 17.1201C17.875 18.1585 17.119 19 16.1875 19Z" fill="url(#paint4_linear_82_419)"/>
<path d="M16.1875 16.3067C15.8185 16.3067 15.5193 15.9737 15.5193 15.5642C15.5193 15.1525 15.6779 14.8746 15.8062 14.6057C16.0717 14.0455 16.1245 13.969 16.1875 13.969C16.2505 13.969 16.3034 14.0455 16.5689 14.6057C16.6972 14.8757 16.8558 15.1525 16.8558 15.5631C16.8558 15.9737 16.5565 16.3067 16.1875 16.3067Z" fill="url(#paint5_linear_82_419)"/>
<defs>
<filter id="filter0_i_82_419" x="5.04883" y="9.25073" width="9.90125" height="2.99927" filterUnits="userSpaceOnUse" color-interpolation-filters="sRGB">
<feFlood flood-opacity="0" result="BackgroundImageFix"/>
<feBlend mode="normal" in="SourceGraphic" in2="BackgroundImageFix" result="shape"/>
<feColorMatrix in="SourceAlpha" type="matrix" values="0 0 0 0 0 0 0 0 0 0 0 0 0 0 0 0 0 0 127 0" result="hardAlpha"/>
<feOffset/>
<feGaussianBlur stdDeviation="0.5"/>
<feComposite in2="hardAlpha" operator="arithmetic" k2="-1" k3="1"/>
<feColorMatrix type="matrix" values="0 0 0 0 0.0411227 0 0 0 0 0.0430885 0 0 0 0 0.0922353 0 0 0 0.819684 0"/>
<feBlend mode="normal" in2="shape" result="effect1_innerShadow_82_419"/>
</filter>
<linearGradient id="paint0_linear_82_419" x1="10" y1="2.845" x2="10" y2="19" gradientUnits="userSpaceOnUse">
<stop stop-color="#FEEA70"/>
<stop offset="1" stop-color="#F69B30"/>
</linearGradient>
<linearGradient id="paint1_linear_82_419" x1="10" y1="13.375" x2="10" y2="15.625" gradientUnits="userSpaceOnUse">
<stop stop-color="#472315"/>
<stop offset="1" stop-color="#8B3A0E"/>
</linearGradient>
<linearGradient id="paint2_linear_82_419" x1="9.99944" y1="9.25073" x2="9.99944" y2="12.25" gradientUnits="userSpaceOnUse">
<stop stop-color="#191A33"/>
<stop offset="0.87162" stop-color="#3B426A"/>
</linearGradient>
<linearGradient id="paint3_linear_82_419" x1="9.99953" y1="6.55078" x2="9.99953" y2="9.09985" gradientUnits="userSpaceOnUse">
<stop stop-color="#E78E0D"/>
<stop offset="1" stop-color="#CB6000"/>
</linearGradient>
<linearGradient id="paint4_linear_82_419" x1="16.1875" y1="17.9309" x2="16.1875" y2="14.1533" gradientUnits="userSpaceOnUse">
<stop stop-color="#35CAFC"/>
<stop offset="1" stop-color="#007EDB"/>
</linearGradient>
<linearGradient id="paint5_linear_82_419" x1="16.1875" y1="13.969" x2="16.1875" y2="16.3067" gradientUnits="userSpaceOnUse">
<stop stop-color="#6AE1FF" stop-opacity="0.287"/>
<stop offset="1" stop-color="#A8E3FF" stop-opacity="0.799"/>
</linearGradient>
</defs>
</svg>
