<svg width="45" height="45" viewBox="0 0 20 20" fill="none" xmlns="http://www.w3.org/2000/svg">
<path d="M9.99994 19.5C15.2471 19.5 19.4999 15.2472 19.4999 10C19.4999 4.75271 15.2471 0.5 9.99994 0.5C4.75268 0.5 0.5 4.75271 0.5 10C0.5 15.2472 4.75268 19.5 9.99994 19.5Z" fill="url(#paint0_linear_82_394)" stroke="white"/>
<path fill-rule="evenodd" clip-rule="evenodd" d="M11.9012 7.62344C11.7872 7.31823 8.21399 7.31823 8.10014 7.62344C7.96784 7.97928 8.78076 8.46292 10.0014 8.44885C11.2205 8.46303 12.032 7.97782 11.9012 7.62344Z" fill="url(#paint1_linear_82_394)"/>
<path fill-rule="evenodd" clip-rule="evenodd" d="M7.8006 5.61257C7.80195 6.36913 7.31831 6.59132 6.60102 6.68267C5.89092 6.78954 5.4128 6.47601 5.40155 5.61257C5.39165 4.88694 5.78259 4.00101 6.60102 3.98413C7.4181 4.00101 7.79914 4.88694 7.8006 5.61257Z" fill="url(#paint2_radial_82_394)"/>
<path fill-rule="evenodd" clip-rule="evenodd" d="M6.48015 4.50583C6.59827 4.64353 6.57712 4.88271 6.43234 5.04156C6.28744 5.19906 6.07515 5.21593 5.95703 5.07812C5.8389 4.94031 5.85994 4.70125 6.00484 4.54375C6.14963 4.38478 6.36203 4.36937 6.48015 4.50572V4.50583Z" fill="#4E506A"/>
<path fill-rule="evenodd" clip-rule="evenodd" d="M12.2022 5.61257C12.2008 6.36913 12.6845 6.59132 13.4017 6.68267C14.1118 6.78954 14.5899 6.47601 14.6012 5.61257C14.6111 4.88694 14.2202 4.00101 13.4016 3.98413C12.5833 4.00101 12.2022 4.88694 12.2022 5.61257Z" fill="url(#paint3_radial_82_394)"/>
<path fill-rule="evenodd" clip-rule="evenodd" d="M13.4073 4.45219C13.503 4.60688 13.4452 4.84032 13.278 4.97397C13.1106 5.10751 12.8983 5.09209 12.8026 4.93741C12.707 4.78272 12.7646 4.54928 12.932 4.41563C13.098 4.28209 13.3117 4.29751 13.4073 4.45219Z" fill="#4E506A"/>
<path fill-rule="evenodd" clip-rule="evenodd" d="M4.79682 3.3345C4.56192 3.53283 4.75182 3.93918 5.14838 3.75356C5.78119 3.4569 7.13815 3.09127 8.33076 3.22481C8.64711 3.26002 8.74971 3.21356 8.67951 2.82262C8.61054 2.43731 8.24638 2.18553 7.34076 2.29668C5.93722 2.46825 5.0316 3.13616 4.79682 3.3345Z" fill="url(#paint4_radial_82_394)"/>
<path fill-rule="evenodd" clip-rule="evenodd" d="M12.6591 2.29513C11.7535 2.18398 11.3893 2.43711 11.3204 2.82096C11.25 3.21201 11.3528 3.25836 11.6691 3.22326C12.8616 3.08961 14.2172 3.45523 14.8515 3.75201C15.248 3.93763 15.4379 3.53117 15.203 3.33294C14.9681 3.13607 14.0626 2.46804 12.6591 2.29513Z" fill="url(#paint5_radial_82_394)"/>
<path d="M11.8942 10.5681C9.54711 9.83822 8.72305 11.4541 8.72305 11.4541C8.72305 11.4541 8.96076 9.65541 6.61369 8.92562C4.35673 8.22385 2.9884 10.3037 2.88299 11.6116C2.65653 14.4269 5.09641 17.6219 6.00901 18.7103C6.21297 18.9535 6.53775 19.0534 6.84296 18.9691C8.21264 18.5907 12.0333 17.342 13.4439 14.8951C14.0977 13.7603 14.1498 11.2698 11.8942 10.5681Z" fill="url(#paint6_linear_82_394)"/>
<path d="M11.8942 10.5681C9.54711 9.83822 8.72305 11.4541 8.72305 11.4541C8.72305 11.4541 8.96076 9.65541 6.61369 8.92562C4.35673 8.22385 2.9884 10.3037 2.88299 11.6116C2.65653 14.4269 5.09641 17.6219 6.00901 18.7103C6.21297 18.9535 6.53775 19.0534 6.84296 18.9691C8.21264 18.5907 12.0333 17.342 13.4439 14.8951C14.0977 13.7603 14.1498 11.2698 11.8942 10.5681Z" fill="url(#paint7_radial_82_394)"/>
<path d="M11.8942 10.5681C9.54711 9.83822 8.72305 11.4541 8.72305 11.4541C8.72305 11.4541 8.96076 9.65541 6.61369 8.92562C4.35673 8.22385 2.9884 10.3037 2.88299 11.6116C2.65653 14.4269 5.09641 17.6219 6.00901 18.7103C6.21297 18.9535 6.53775 19.0534 6.84296 18.9691C8.21264 18.5907 12.0333 17.342 13.4439 14.8951C14.0977 13.7603 14.1498 11.2698 11.8942 10.5681Z" fill="url(#paint8_radial_82_394)"/>
<path style="mix-blend-mode:multiply" d="M11.8942 10.5681C9.54711 9.83822 8.72305 11.4541 8.72305 11.4541C8.72305 11.4541 8.96076 9.65541 6.61369 8.92562C4.35673 8.22385 2.9884 10.3037 2.88299 11.6116C2.65653 14.4269 5.09641 17.6219 6.00901 18.7103C6.21297 18.9535 6.53775 19.0534 6.84296 18.9691C8.21264 18.5907 12.0333 17.342 13.4439 14.8951C14.0977 13.7603 14.1498 11.2698 11.8942 10.5681Z" fill="url(#paint9_radial_82_394)"/>
<path style="mix-blend-mode:multiply" d="M11.8942 10.5681C9.54711 9.83822 8.72305 11.4541 8.72305 11.4541C8.72305 11.4541 8.96076 9.65541 6.61369 8.92562C4.35673 8.22385 2.9884 10.3037 2.88299 11.6116C2.65653 14.4269 5.09641 17.6219 6.00901 18.7103C6.21297 18.9535 6.53775 19.0534 6.84296 18.9691C8.21264 18.5907 12.0333 17.342 13.4439 14.8951C14.0977 13.7603 14.1498 11.2698 11.8942 10.5681Z" fill="url(#paint10_radial_82_394)"/>
<path style="mix-blend-mode:multiply" d="M11.8942 10.5681C9.54711 9.83822 8.72305 11.4541 8.72305 11.4541C8.72305 11.4541 8.96076 9.65541 6.61369 8.92562C4.35673 8.22385 2.9884 10.3037 2.88299 11.6116C2.65653 14.4269 5.09641 17.6219 6.00901 18.7103C6.21297 18.9535 6.53775 19.0534 6.84296 18.9691C8.21264 18.5907 12.0333 17.342 13.4439 14.8951C14.0977 13.7603 14.1498 11.2698 11.8942 10.5681Z" fill="url(#paint11_radial_82_394)"/>
<path style="mix-blend-mode:multiply" d="M11.8942 10.5681C9.54711 9.83822 8.72305 11.4541 8.72305 11.4541C8.72305 11.4541 8.96076 9.65541 6.61369 8.92562C4.35673 8.22385 2.9884 10.3037 2.88299 11.6116C2.65653 14.4269 5.09641 17.6219 6.00901 18.7103C6.21297 18.9535 6.53775 19.0534 6.84296 18.9691C8.21264 18.5907 12.0333 17.342 13.4439 14.8951C14.0977 13.7603 14.1498 11.2698 11.8942 10.5681Z" fill="url(#paint12_radial_82_394)"/>
<path style="mix-blend-mode:multiply" d="M11.8942 10.5681C9.54711 9.83822 8.72305 11.4541 8.72305 11.4541C8.72305 11.4541 8.96076 9.65541 6.61369 8.92562C4.35673 8.22385 2.9884 10.3037 2.88299 11.6116C2.65653 14.4269 5.09641 17.6219 6.00901 18.7103C6.21297 18.9535 6.53775 19.0534 6.84296 18.9691C8.21264 18.5907 12.0333 17.342 13.4439 14.8951C14.0977 13.7603 14.1498 11.2698 11.8942 10.5681Z" fill="url(#paint13_radial_82_394)"/>
<mask id="mask0_82_394" style="mask-type:alpha" maskUnits="userSpaceOnUse" x="1" y="1" width="18" height="18">
<path d="M19 10C19 14.971 14.9711 19 10.0001 19C5.02895 19 1.00012 14.971 1.00012 10C1.00012 5.02885 5.02895 1 10.0001 1C14.9711 1 19 5.02885 19 10Z" fill="white"/>
</mask>
<g mask="url(#mask0_82_394)">
<path fill-rule="evenodd" clip-rule="evenodd" d="M2.48797 9.62327C1.90016 9.05087 0.86517 8.78942 0.747046 10.1155C0.654234 11.1519 1.13989 12.8849 2.37041 13.8917C5.46414 16.423 8.38294 14.9774 8.47147 13.2107C8.54133 11.8174 6.94857 11.9675 6.43389 11.9957C6.39867 11.997 6.38326 11.9507 6.4142 11.931C6.52242 11.8607 6.69961 11.7397 6.88669 11.5822C7.29023 11.2418 7.08357 10.6512 6.51961 10.8214C6.43389 10.8467 5.06139 11.2573 4.19087 10.9283C3.20369 10.5557 3.08557 10.2069 2.48797 9.62327Z" fill="url(#paint14_radial_82_394)"/>
<path fill-rule="evenodd" clip-rule="evenodd" d="M17.0439 9.82005C17.3941 9.14224 17.9504 9.37995 18.2633 9.48424C18.7243 9.63791 18.9986 9.92411 18.9986 10.6413C18.9986 12.3415 18.7173 13.9179 17.2985 15.5013C14.6998 18.3995 10.2814 18.0157 9.9073 16.1875C9.59793 14.6716 11.2376 14.5197 11.7649 14.4494C11.8015 14.4451 11.8071 14.3889 11.7748 14.3748C11.5885 14.2904 11.4081 14.1936 11.2348 14.0851C10.7665 13.7926 10.8733 13.1036 11.4752 13.1782C12.1558 13.2794 12.9982 13.4707 13.7238 13.399C15.8248 13.1881 16.2213 11.4119 17.0439 9.82005Z" fill="url(#paint15_radial_82_394)"/>
</g>
<defs>
<linearGradient id="paint0_linear_82_394" x1="9.99995" y1="18.1063" x2="9.99995" y2="2.33497" gradientUnits="userSpaceOnUse">
<stop stop-color="#F28A2D"/>
<stop offset="1" stop-color="#FDE86F"/>
</linearGradient>
<linearGradient id="paint1_linear_82_394" x1="9.99994" y1="6.97204" x2="9.99994" y2="8.57475" gradientUnits="userSpaceOnUse">
<stop stop-color="#482314"/>
<stop offset="1" stop-color="#9A4111"/>
</linearGradient>
<radialGradient id="paint2_radial_82_394" cx="0" cy="0" r="1" gradientUnits="userSpaceOnUse" gradientTransform="translate(5.62175 -2.70109) rotate(-90) scale(1.84674 2.3712)">
<stop stop-color="#3B446B"/>
<stop offset="0.6884" stop-color="#202340"/>
</radialGradient>
<radialGradient id="paint3_radial_82_394" cx="0" cy="0" r="1" gradientUnits="userSpaceOnUse" gradientTransform="translate(5.60512 -8.68618) rotate(-90) scale(1.84674 2.3712)">
<stop stop-color="#3B446B"/>
<stop offset="0.6884" stop-color="#202340"/>
</radialGradient>
<radialGradient id="paint4_radial_82_394" cx="0" cy="0" r="1" gradientUnits="userSpaceOnUse" gradientTransform="translate(3.53516 -5.11236) rotate(-95.6135) scale(1.16051 0.829179)">
<stop stop-color="#E38200"/>
<stop offset="1" stop-color="#CD6700"/>
</radialGradient>
<radialGradient id="paint5_radial_82_394" cx="0" cy="0" r="1" gradientUnits="userSpaceOnUse" gradientTransform="translate(5.50582 -8.63008) rotate(-85.7853) scale(1.23768 1.10586)">
<stop stop-color="#E38200"/>
<stop offset="1" stop-color="#CD6700"/>
</radialGradient>
<linearGradient id="paint6_linear_82_394" x1="8.65142" y1="11.9783" x2="6.36069" y2="19.3457" gradientUnits="userSpaceOnUse">
<stop stop-color="#F34462"/>
<stop offset="1" stop-color="#CC0820"/>
</linearGradient>
<radialGradient id="paint7_radial_82_394" cx="0" cy="0" r="1" gradientUnits="userSpaceOnUse" gradientTransform="translate(5.95494 15.7439) rotate(21.7628) scale(2.98497 2.93047)">
<stop stop-color="#FF7091" stop-opacity="0.7"/>
<stop offset="1" stop-color="#FE6D8E" stop-opacity="0"/>
</radialGradient>
<radialGradient id="paint8_radial_82_394" cx="0" cy="0" r="1" gradientUnits="userSpaceOnUse" gradientTransform="translate(1.82822 12.7286) rotate(21.7628) scale(2.98497 2.93047)">
<stop stop-color="#FF7091" stop-opacity="0.7"/>
<stop offset="1" stop-color="#FE6D8E" stop-opacity="0"/>
</radialGradient>
<radialGradient id="paint9_radial_82_394" cx="0" cy="0" r="1" gradientUnits="userSpaceOnUse" gradientTransform="translate(-15.3899 2.22483) rotate(100.831) scale(2.72249 3.26845)">
<stop stop-color="#9C0600" stop-opacity="0.9986"/>
<stop offset="1" stop-color="white"/>
</radialGradient>
<radialGradient id="paint10_radial_82_394" cx="0" cy="0" r="1" gradientUnits="userSpaceOnUse" gradientTransform="translate(3.8488 21.4876) rotate(32.4534) scale(1.56241 1.88588)">
<stop stop-color="#9C0600" stop-opacity="0.5"/>
<stop offset="1" stop-color="white"/>
</radialGradient>
<radialGradient id="paint11_radial_82_394" cx="0" cy="0" r="1" gradientUnits="userSpaceOnUse" gradientTransform="translate(7.1579 12.5722) rotate(-21.5163) scale(1.34287 1.69959)">
<stop stop-color="#9C0600" stop-opacity="0.5"/>
<stop offset="1" stop-color="white"/>
</radialGradient>
<radialGradient id="paint12_radial_82_394" cx="0" cy="0" r="1" gradientUnits="userSpaceOnUse" gradientTransform="translate(0.589822 20.29) rotate(35.9907) scale(1.83426 1.8955)">
<stop stop-color="#9C0600" stop-opacity="0.9986"/>
<stop offset="1" stop-color="white"/>
</radialGradient>
<radialGradient id="paint13_radial_82_394" cx="0" cy="0" r="1" gradientUnits="userSpaceOnUse" gradientTransform="translate(-13.0263 1.97988) rotate(112.664) scale(5.57441 5.66372)">
<stop stop-color="white" stop-opacity="0"/>
<stop offset="1" stop-color="#F08423"/>
</radialGradient>
<radialGradient id="paint14_radial_82_394" cx="0" cy="0" r="1" gradientUnits="userSpaceOnUse" gradientTransform="translate(-3.06626 7.85165) rotate(43.2026) scale(8.24282 6.78127)">
<stop stop-color="#EDA83A"/>
<stop offset="1" stop-color="#FFDC5E"/>
</radialGradient>
<radialGradient id="paint15_radial_82_394" cx="0" cy="0" r="1" gradientUnits="userSpaceOnUse" gradientTransform="translate(-14.7027 7.16616) rotate(131.418) scale(9.16776 8.23311)">
<stop stop-color="#F4B248"/>
<stop offset="1" stop-color="#FFDD5F"/>
</radialGradient>
</defs>
</svg>
